# xmcd
#
# Track frame offsets: 
#        150
#        13808
#        29266
#        39994
#        55432
#        70541
#        82591
#        94765
#        108605
#        121512
#        136099
#        148723
#        165699
#        180408
#
# Disc length: 2574 seconds
#
# Revision: 0
# Processed by: cddbd v1.5.2PL0 Copyright (c) Steve Scherf et al.
# Submitted via: ExactAudioCopy v1.0b3
#
DISCID=a90a0c0e
DTITLE=Jan Preston - Boogie Down Under!
DYEAR=1900
DGENRE=
TTITLE0=Big Ben Boogie
TTITLE1=The Boogie Gal
TTITLE2=12th St Rag
TTITLE3=At Marchwood
TTITLE4=Honky Tonk Train Blues
TTITLE5=Tonight's The Night
TTITLE6=5 Finger Boogie
TTITLE7=Ivan The Cool
TTITLE8=Alley Cat
TTITLE9=Wild Mood Swing
TTITLE10=Boogie Down Under
TTITLE11=The Cool Boogie Woogie
TTITLE12=In The Mood - Bugle Boy
TTITLE13=Black And White Rag
EXTD=
EXTT0=
EXTT1=
EXTT2=
EXTT3=
EXTT4=
EXTT5=
EXTT6=
EXTT7=
EXTT8=
EXTT9=
EXTT10=
EXTT11=
EXTT12=
EXTT13=
PLAYORDER=
